<?xml version="1.0" encoding="UTF-8" standalone="no"?>
<!-- Created with Inkscape (http://www.inkscape.org/) -->

<svg
   xmlns:dc="http://purl.org/dc/elements/1.1/"
   xmlns:cc="http://creativecommons.org/ns#"
   xmlns:rdf="http://www.w3.org/1999/02/22-rdf-syntax-ns#"
   xmlns:svg="http://www.w3.org/2000/svg"
   xmlns="http://www.w3.org/2000/svg"
   xmlns:sodipodi="http://sodipodi.sourceforge.net/DTD/sodipodi-0.dtd"
   xmlns:inkscape="http://www.inkscape.org/namespaces/inkscape"
   width="24.09704mm"
   height="31.133421mm"
   viewBox="0 0 24.09704 31.133421"
   version="1.1"
   id="svg8"
   inkscape:version="0.92.0 r15299"
   sodipodi:docname="icon.svg">
  <defs
     id="defs2" />
  <sodipodi:namedview
     id="base"
     pagecolor="#ffffff"
     bordercolor="#666666"
     borderopacity="1.0"
     inkscape:pageopacity="0.0"
     inkscape:pageshadow="2"
     inkscape:zoom="0.98994949"
     inkscape:cx="277.17145"
     inkscape:cy="81.216173"
     inkscape:document-units="mm"
     inkscape:current-layer="layer1"
     showgrid="false"
     fit-margin-top="0"
     fit-margin-left="0"
     fit-margin-right="0"
     fit-margin-bottom="0" />
  <metadata
     id="metadata5">
    <rdf:RDF>
      <cc:Work
         rdf:about="">
        <dc:format>image/svg+xml</dc:format>
        <dc:type
           rdf:resource="http://purl.org/dc/dcmitype/StillImage" />
        <dc:title></dc:title>
      </cc:Work>
    </rdf:RDF>
  </metadata>
  <g
     inkscape:label="レイヤー 1"
     inkscape:groupmode="layer"
     id="layer1"
     transform="translate(-3.8264799,-183.15948)">
    <path
       inkscape:connector-curvature="0"
       style="color:#000000;overflow:visible;opacity:1;vector-effect:none;fill:#cccccc;fill-opacity:1;stroke-width:0.01523156;stroke-linecap:butt;stroke-linejoin:miter;stroke-miterlimit:4;stroke-dasharray:none;stroke-dashoffset:0;stroke-opacity:1;marker:none"
       d="m 15.875001,183.15948 c -0.65448,0.0114 -1.28219,0.0775 -1.90585,0.16142 -1.97938,0.28994 -3.838491,1.12472 -5.3235405,2.32948 -2.8048301,2.3161 -4.4534401,5.74235 -4.3585101,9.17039 -0.0784,1.2044 0.0749,2.70094 -0.0239,4.03605 -0.60324,1.47559 -0.51463,1.81786 -0.13826,2.78333 0.38805,1.79958 0.91101,3.15376 1.34518,4.94998 0.93017,0.31832 2.7862902,0.96017 2.7862902,0.96017 l 0.9751398,4.84822 6.6435106,1.89438 6.64336,-1.89438 0.97514,-4.84822 c 0,0 1.85615,-0.64185 2.78629,-0.96017 0.4342,-1.79622 0.95713,-3.1504 1.3452,-4.94998 0.37638,-0.96547 0.46499,-1.30774 -0.13825,-2.78333 -0.0989,-1.33511 0.0544,-2.83165 -0.024,-4.03605 0.0949,-3.42804 -1.55366,-6.85429 -4.35849,-9.17039 -1.48505,-1.20476 -3.34416,-2.03954 -5.32355,-2.32948 -0.62365,-0.0839 -1.25126,-0.15002 -1.90573,-0.16142 z m 0,1.7841 c 7.14709,0.0149 9.61491,6.6667 9.61491,8.98731 0,0.46891 0.007,1.72286 0.0149,2.94338 l -1.55755,-0.0213 c -1.59251,-0.0218 -2.46628,1.42785 -5.17587,2.21521 3.03378,-0.14366 3.21941,-1.47839 4.99427,-1.18041 2.69581,3.18655 1.45186,5.93686 -0.98819,7.58676 v -1.45158 l -0.275898,-0.27579 c 0.98858,-0.96073 1.62205,-2.29919 1.29673,-3.50805 -0.16931,-0.6291 -0.60066,-0.84579 -1.17219,-0.83968 -1.46054,0.0156 -3.83678,1.48686 -5.09604,1.25092 l 0.33364,2.51858 1.71627,1.89707 0.72205,0.72205 v 1.60264 l 0.7892,-0.45564 v -1.76936 l -0.30786,-0.30784 a 4.1892194,4.1892194 0 0 0 0.34215,-0.14364 l 0.50244,0.50242 v 1.51288 l -0.50544,2.4199 -1.21164,0.34304 v -1.7502 l -0.90106,0.23904 v 3.04461 l -0.90106,0.25691 -0.003,-3.06018 -0.90394,0.24146 v 1.79726 l -0.9011,0.25627 v -1.81205 l -0.42639,0.11531 -0.4264,-0.11531 v 3.58909 l -0.90112,-0.25695 -0.003,-5.32872 -0.90107,-0.23906 v 4.81207 l -0.90106,-0.25697 -0.003,-3.77961 -0.90106,-0.23906 v 2.48609 l -1.211639,-0.34304 -0.33049,-1.5824 0.48636,0.48639 v -2.71503 l 0.60926,-0.35176 c 0.26239,0.0617 0.52358,0.0902 0.77717,0.0794 l 1.71639,-1.89707 0.33351,-2.51858 c -1.25928,0.23594 -3.63549,-1.23526 -5.0960401,-1.25092 -0.5715202,-0.006 -1.00275,0.21058 -1.17206,0.83968 -0.22274,0.82758 0.004,1.71593 0.4863301,2.50227 l -0.3776901,0.37767 v 1.63272 c -1.7910901,-1.67388 -2.4095601,-4.10557 -0.076,-6.864 1.7748999,-0.29798 1.9605599,1.03675 4.9943401,1.18041 -2.7096,-0.78736 -3.5834402,-2.23702 -5.1759403,-2.21521 l -1.5575199,0.0213 c 0.008,-1.22052 0.0149,-2.47447 0.0149,-2.94338 0,-2.32061 2.46788,-8.97236 9.6150002,-8.98731 z m 0,17.81016 -1.55216,2.23607 0.48172,1.01053 1.07044,-0.8218 1.07036,0.8218 0.48168,-1.01053 z m -6.9220505,0.68355 c 0.35051,0.39875 0.7632899,0.74882 1.2035105,1.02154 l -0.5898504,0.34051 v 1.04263 c -0.2766701,-0.15613 -0.5423202,-0.32524 -0.7937,-0.50647 v -1.71816 z"
       overflow="visible"
       id="path4593-5-8-0-6-2" />
  </g>
</svg>
