<?xml version="1.0" encoding="UTF-8" standalone="no"?>
<!-- Created with Inkscape (http://www.inkscape.org/) -->

<svg
   xmlns:dc="http://purl.org/dc/elements/1.1/"
   xmlns:cc="http://creativecommons.org/ns#"
   xmlns:rdf="http://www.w3.org/1999/02/22-rdf-syntax-ns#"
   xmlns:svg="http://www.w3.org/2000/svg"
   xmlns="http://www.w3.org/2000/svg"
   xmlns:sodipodi="http://sodipodi.sourceforge.net/DTD/sodipodi-0.dtd"
   xmlns:inkscape="http://www.inkscape.org/namespaces/inkscape"
   width="23.11664mm"
   height="15.95825mm"
   viewBox="0 0 23.11664 15.95825"
   version="1.1"
   id="svg8"
   inkscape:version="0.92.0 r15299"
   sodipodi:docname="mail.svg">
  <defs
     id="defs2" />
  <sodipodi:namedview
     id="base"
     pagecolor="#ffffff"
     bordercolor="#666666"
     borderopacity="1.0"
     inkscape:pageopacity="0.0"
     inkscape:pageshadow="2"
     inkscape:zoom="0.7"
     inkscape:cx="6.7222884"
     inkscape:cy="34.476635"
     inkscape:document-units="mm"
     inkscape:current-layer="layer1"
     showgrid="false"
     fit-margin-top="0"
     fit-margin-left="0"
     fit-margin-right="0"
     fit-margin-bottom="0" />
  <metadata
     id="metadata5">
    <rdf:RDF>
      <cc:Work
         rdf:about="">
        <dc:format>image/svg+xml</dc:format>
        <dc:type
           rdf:resource="http://purl.org/dc/dcmitype/StillImage" />
        <dc:title></dc:title>
      </cc:Work>
    </rdf:RDF>
  </metadata>
  <g
     inkscape:label="レイヤー 1"
     inkscape:groupmode="layer"
     id="layer1"
     transform="translate(-149.45954,-143.12207)">
    <g
       transform="translate(-458.81509,-31.974835)"
       aria-label="📧"
       style="color:#000000;font-style:normal;font-variant:normal;font-weight:normal;font-stretch:normal;font-size:23.34461784px;line-height:8.86488342px;font-family:'AR PWanyinzhuai JIS Light';-inkscape-font-specification:'AR PWanyinzhuai JIS Light, ';font-variant-ligatures:normal;font-variant-position:normal;font-variant-caps:normal;font-variant-numeric:normal;font-variant-alternates:normal;font-feature-settings:normal;text-indent:0;text-align:start;text-decoration:none;text-decoration-line:none;text-decoration-style:solid;text-decoration-color:#000000;letter-spacing:normal;word-spacing:normal;text-transform:none;writing-mode:lr-tb;direction:ltr;text-orientation:mixed;dominant-baseline:auto;baseline-shift:baseline;text-anchor:start;white-space:normal;shape-padding:0;clip-rule:nonzero;display:inline;overflow:visible;visibility:visible;opacity:0.98999999;isolation:auto;mix-blend-mode:normal;color-interpolation:sRGB;color-interpolation-filters:linearRGB;solid-color:#000000;solid-opacity:1;vector-effect:none;fill:#cccccc;fill-opacity:1;fill-rule:nonzero;stroke:none;stroke-width:0.44324419;stroke-linecap:round;stroke-linejoin:miter;stroke-miterlimit:4;stroke-dasharray:none;stroke-dashoffset:0;stroke-opacity:1;marker:none;color-rendering:auto;image-rendering:auto;shape-rendering:auto;text-rendering:auto;enable-background:accumulate"
       id="text5396-5">
      <path
         inkscape:connector-curvature="0"
         d="m 620.06093,186.8832 q 0.0342,0.76372 0.27357,1.48184 h -11.04538 q -0.46735,0 -0.74092,-0.21658 -0.27357,-0.22797 -0.27357,-0.70672 v -11.33035 q 0,-0.49014 0.27357,-0.75231 0.27357,-0.26218 0.74092,-0.26218 h 16.01523 q 0.47875,0 0.72952,0.26218 0.25077,0.26217 0.25077,0.75231 v 3.72739 q -0.42175,0.0228 -0.84351,0.0912 -0.41035,0.0684 -0.78651,0.19378 v -1.858 l -6.87344,5.27762 q -0.20518,0.17098 -0.46735,0.17098 -0.27357,0 -0.47874,-0.17098 l -6.95324,-5.27762 v 8.61745 z m -9.65473,-10.15628 6.90763,5.22063 6.89624,-5.22063 z m 19.62863,5.89315 q 1.35644,1.18547 1.35644,3.07766 0,0.69532 -0.19377,1.26526 -0.18238,0.56994 -0.53574,1.01449 -0.36476,0.46735 -0.80931,0.68392 -0.43316,0.20518 -0.9575,0.20518 -1.35645,0 -1.35645,-1.25386 h -0.0228 q -0.43315,1.25386 -1.65281,1.25386 -0.80931,0 -1.26526,-0.58133 -0.25078,-0.29637 -0.37616,-0.67253 -0.12539,-0.38756 -0.12539,-0.9005 0,-1.32225 0.67253,-2.22275 0.31916,-0.42176 0.75231,-0.63833 0.43316,-0.22798 0.9803,-0.22798 0.21657,0 0.38755,0.0684 0.18238,0.057 0.34197,0.18238 0.17098,0.11399 0.27356,0.23938 0.10259,0.12538 0.14819,0.29636 h 0.0342 q 0,-0.0912 0.0114,-0.25077 0.0228,-0.15958 0.0684,-0.42175 h 0.95749 q -0.12539,1.55023 -0.19378,2.33674 -0.057,0.78651 -0.057,0.80931 0,1.17407 0.58133,1.17407 0.53574,0 0.9347,-0.64973 0.15958,-0.33056 0.25077,-0.75231 0.10259,-0.42176 0.10259,-0.9575 0,-1.49323 -0.99169,-2.47352 -0.98029,-0.9461 -2.7357,-0.9461 -1.64142,0 -2.73569,1.16267 -1.10568,1.15127 -1.10568,2.90668 0,1.75541 1.03728,2.79269 1.07148,1.07148 2.86109,1.07148 0.69532,0 1.29945,-0.12538 0.60414,-0.11399 1.11708,-0.37616 v 0.9233 q -1.04868,0.42175 -2.58751,0.42175 -2.15437,0 -3.46522,-1.29946 -1.32225,-1.28805 -1.32225,-3.35123 0,-2.14296 1.40204,-3.5678 1.39065,-1.42484 3.55641,-1.42484 2.08597,0 3.36263,1.20826 z m -2.84969,4.76467 q 0.15958,-0.34196 0.25077,-0.77511 0.10259,-0.44455 0.10259,-0.99169 0,-1.15127 -0.9233,-1.15127 -0.63833,0 -1.06008,0.64973 -0.19378,0.30776 -0.29637,0.69532 -0.10259,0.38756 -0.10259,0.8663 0,0.66113 0.28497,0.98029 0.26217,0.39896 0.69533,0.39896 0.34196,0 0.59273,-0.17098 0.26217,-0.17098 0.45595,-0.50155 z"
         style="fill:#cccccc;stroke-width:0.44324419"
         id="path5738" />
    </g>
  </g>
</svg>
