<?xml version="1.0" encoding="UTF-8" standalone="no"?>
<!-- Created with Inkscape (http://www.inkscape.org/) -->

<svg
   xmlns:dc="http://purl.org/dc/elements/1.1/"
   xmlns:cc="http://creativecommons.org/ns#"
   xmlns:rdf="http://www.w3.org/1999/02/22-rdf-syntax-ns#"
   xmlns:svg="http://www.w3.org/2000/svg"
   xmlns="http://www.w3.org/2000/svg"
   xmlns:sodipodi="http://sodipodi.sourceforge.net/DTD/sodipodi-0.dtd"
   xmlns:inkscape="http://www.inkscape.org/namespaces/inkscape"
   width="200"
   height="41.391987"
   viewBox="0 0 52.916666 10.95163"
   version="1.1"
   id="svg8"
   inkscape:version="0.92.0 r15299"
   sodipodi:docname="ninjalogo.svg">
  <defs
     id="defs2" />
  <sodipodi:namedview
     id="base"
     pagecolor="#ffffff"
     bordercolor="#666666"
     borderopacity="1.0"
     inkscape:pageopacity="0.0"
     inkscape:pageshadow="2"
     inkscape:zoom="1.4"
     inkscape:cx="45.763104"
     inkscape:cy="15.314941"
     inkscape:document-units="mm"
     inkscape:current-layer="layer1"
     showgrid="false"
     fit-margin-top="0"
     fit-margin-left="0"
     fit-margin-right="0"
     fit-margin-bottom="0"
     inkscape:window-width="1366"
     inkscape:window-height="744"
     inkscape:window-x="0"
     inkscape:window-y="24"
     inkscape:window-maximized="1"
     units="px" />
  <metadata
     id="metadata5">
    <rdf:RDF>
      <cc:Work
         rdf:about="">
        <dc:format>image/svg+xml</dc:format>
        <dc:type
           rdf:resource="http://purl.org/dc/dcmitype/StillImage" />
        <dc:title />
      </cc:Work>
    </rdf:RDF>
  </metadata>
  <g
     inkscape:label="レイヤー 1"
     inkscape:groupmode="layer"
     id="layer1"
     transform="translate(-7.9009926,-149.39063)">
    <path
       style="line-height:normal;text-indent:0;text-align:start;text-decoration:none;text-decoration-line:none;text-decoration-style:solid;text-decoration-color:#000000;text-transform:none;opacity:1;isolation:auto;mix-blend-mode:normal;fill:#000000;stroke-width:0.78641355"
       d="m 44.581959,150.14658 v 6.68504 h -1.707703 l -1.181234,-1.57406 h -1.829198 v 0.39554 l 2.951026,3.92975 h 4.91254 v -9.43627 z m 4.719481,0 v 2.35705 l 2.159947,2.87947 H 49.30144 v 2.35705 h 3.931107 l 1.385072,1.84136 h 2.547389 v -0.54269 l -6.678292,-8.89224 z m 2.169409,0 5.694159,7.58277 v -1.31082 l -4.708686,-6.27195 z m 1.969606,0 3.724553,4.95843 v -1.31081 l -2.740435,-3.64762 z m 1.969595,0 1.754958,2.33815 v -1.31353 l -0.770834,-1.02462 z m -43.856407,0.002 v 9.43763 h 0.785682 v -9.43763 z m 1.572717,0 v 9.43763 h 0.785681 v -9.43763 z m 1.572708,0 v 9.43763 h 0.785682 v -9.43763 z m 1.572717,0 v 9.43758 h 3.145428 v -4.1957 l 3.145425,4.1957 h 3.145419 v -1.04487 l -6.290844,-8.39274 z m 10.223307,0 v 0.78704 l 2.35839,3.14137 v -2.87678 l -0.789731,-1.05163 z m 5.505162,0 -0.004,0.002 h 0.0055 z m 0.0016,0.002 7.07247,9.43628 v -9.43626 h -1.57002 l 0.784339,1.04487 v 6.03841 l -3.146758,-4.19704 v -2.88623 z m -9.441671,0 v 2.88625 l 3.145431,4.19705 v -6.03841 l -0.783002,-1.04487 z m 3.935146,2.09651 v 7.33708 h 2.358392 v -4.1957 z m 5.505163,3.14273 v 4.19435 h 3.145386 z m 7.86357,1.57541 v 1.31082 l 0.982775,1.30812 h 0.984124 z"
       id="path9403-1-3"
       inkscape:connector-curvature="0" />
  </g>
</svg>
