<?xml version="1.0" encoding="UTF-8" standalone="no"?>
<!-- Created with Inkscape (http://www.inkscape.org/) -->

<svg
   xmlns:dc="http://purl.org/dc/elements/1.1/"
   xmlns:cc="http://creativecommons.org/ns#"
   xmlns:rdf="http://www.w3.org/1999/02/22-rdf-syntax-ns#"
   xmlns:svg="http://www.w3.org/2000/svg"
   xmlns="http://www.w3.org/2000/svg"
   xmlns:sodipodi="http://sodipodi.sourceforge.net/DTD/sodipodi-0.dtd"
   xmlns:inkscape="http://www.inkscape.org/namespaces/inkscape"
   width="22.50156mm"
   height="26.580521mm"
   viewBox="0 0 22.50156 26.580521"
   version="1.1"
   id="svg8"
   inkscape:version="0.92.0 r15299"
   sodipodi:docname="prize.svg">
  <defs
     id="defs2" />
  <sodipodi:namedview
     id="base"
     pagecolor="#ffffff"
     bordercolor="#666666"
     borderopacity="1.0"
     inkscape:pageopacity="0.0"
     inkscape:pageshadow="2"
     inkscape:zoom="0.98994949"
     inkscape:cx="148.80102"
     inkscape:cy="71.156075"
     inkscape:document-units="mm"
     inkscape:current-layer="layer1"
     showgrid="false"
     fit-margin-top="0"
     fit-margin-left="0"
     fit-margin-right="0"
     fit-margin-bottom="0" />
  <metadata
     id="metadata5">
    <rdf:RDF>
      <cc:Work
         rdf:about="">
        <dc:format>image/svg+xml</dc:format>
        <dc:type
           rdf:resource="http://purl.org/dc/dcmitype/StillImage" />
        <dc:title></dc:title>
      </cc:Work>
    </rdf:RDF>
  </metadata>
  <g
     inkscape:label="ãƒ¬ã‚¤ãƒ¤ãƒ¼ 1"
     inkscape:groupmode="layer"
     id="layer1"
     transform="translate(-41.66589,-156.70974)">
    <g
       transform="translate(-512.53572,52.91668)"
       aria-label="ðŸ†"
       style="color:#000000;font-style:normal;font-variant:normal;font-weight:normal;font-stretch:normal;font-size:30.59971809px;line-height:11.61993408px;font-family:'AR PWanyinzhuai JIS Light';-inkscape-font-specification:'AR PWanyinzhuai JIS Light, ';font-variant-ligatures:normal;font-variant-position:normal;font-variant-caps:normal;font-variant-numeric:normal;font-variant-alternates:normal;font-feature-settings:normal;text-indent:0;text-align:start;text-decoration:none;text-decoration-line:none;text-decoration-style:solid;text-decoration-color:#000000;letter-spacing:normal;word-spacing:normal;text-transform:none;writing-mode:lr-tb;direction:ltr;text-orientation:mixed;dominant-baseline:auto;baseline-shift:baseline;text-anchor:start;white-space:normal;shape-padding:0;clip-rule:nonzero;display:inline;overflow:visible;visibility:visible;opacity:0.98999999;isolation:auto;mix-blend-mode:normal;color-interpolation:sRGB;color-interpolation-filters:linearRGB;solid-color:#000000;solid-opacity:1;vector-effect:none;fill:#cccccc;fill-opacity:1;fill-rule:nonzero;stroke:none;stroke-width:0.58099675;stroke-linecap:round;stroke-linejoin:miter;stroke-miterlimit:4;stroke-dasharray:none;stroke-dashoffset:0;stroke-opacity:1;marker:none;color-rendering:auto;image-rendering:auto;shape-rendering:auto;text-rendering:auto;enable-background:accumulate"
       id="text5392-2">
      <path
         inkscape:connector-curvature="0"
         d="m 571.59326,103.79306 h 5.10991 v 3.01814 q 0,0.88154 -0.0598,1.89754 -0.0448,1.01601 -0.254,2.04696 -0.19424,1.03094 -0.59765,2.01707 -0.40342,0.98612 -1.09072,1.80789 -1.73318,2.04695 -4.66167,2.22625 -0.80683,1.4493 -1.76307,2.34578 -0.9413,0.89647 -2.01707,1.18036 0.41835,0.16435 0.79189,0.49306 0.37353,0.31377 0.65741,0.73212 0.29883,0.40342 0.49306,0.85166 0.20918,0.44823 0.29883,0.86659 h 1.8826 v 2.09178 h 1.21024 v 5.00532 H 559.3115 v -5.00532 h 1.21024 v -2.09178 h 1.91248 q 0.0747,-0.41836 0.26895,-0.86659 0.19423,-0.44824 0.47812,-0.85166 0.29882,-0.41835 0.67235,-0.73212 0.38848,-0.32871 0.82177,-0.49306 -1.07577,-0.28389 -2.04695,-1.18036 -0.95624,-0.89648 -1.73319,-2.34578 -1.46424,-0.0897 -2.6446,-0.62753 -1.16542,-0.55283 -2.03201,-1.56884 -0.70224,-0.82177 -1.10566,-1.80789 -0.40341,-1.00107 -0.61259,-2.03201 -0.19424,-1.04589 -0.254,-2.0619 -0.0448,-1.016 -0.0448,-1.89754 v -3.01814 h 5.10992 v 0.98613 h -3.6905 v 2.10672 q 0,0.80683 0.0448,1.7033 0.0448,0.88154 0.22412,1.77801 0.17929,0.88154 0.52294,1.71825 0.35859,0.83671 0.97118,1.53895 0.53789,0.62753 1.21025,1.03095 0.67235,0.38847 1.52401,0.53788 -0.85166,-2.09178 -1.34472,-4.72144 -0.49306,-2.6446 -0.49306,-5.6478 h 14.34362 q 0,3.0032 -0.49306,5.6478 -0.47812,2.62966 -1.31483,4.72144 1.65848,-0.34365 2.71931,-1.55389 0.59765,-0.71718 0.9413,-1.55389 0.35859,-0.83671 0.53788,-1.71825 0.1793,-0.88153 0.22412,-1.76307 0.0448,-0.88153 0.0448,-1.68836 v -2.1366 h -3.69049 z m -2.01707,24.18992 q 0,-0.22412 -0.32871,-0.40342 -0.31376,-0.19423 -0.88153,-0.3287 -0.55283,-0.14942 -1.31483,-0.22412 -0.74707,-0.0747 -1.59872,-0.0747 -0.83671,0 -1.58377,0.0747 -0.74707,0.0747 -1.2999,0.22412 -0.55282,0.13447 -0.88153,0.3287 -0.31377,0.1793 -0.31377,0.40342 0,0.20918 0.31377,0.38847 0.32871,0.1793 0.88153,0.31377 0.55283,0.13447 1.2999,0.20918 0.74706,0.0747 1.58377,0.0747 0.85165,0 1.59872,-0.0747 0.762,-0.0747 1.31483,-0.20918 0.56777,-0.13447 0.88153,-0.31377 0.32871,-0.17929 0.32871,-0.38847 z"
         style="fill:#cccccc;stroke-width:0.58099675"
         id="path5744" />
    </g>
  </g>
</svg>
