<svg xmlns="http://www.w3.org/2000/svg" width="524.006" height="108.487" viewBox="0 0 138.64325 28.703945"><path d="M.406.397L.397 27.513h2.26L2.666.397zm4.52 0v27.116h2.259V.397zm4.519 0v27.116h2.26V.397zm11.298 0l20.328 27.116.01-27.111H36.57l2.25 3v17.35L29.782 8.695V.402zm24.857 0v14.887l6.779 6.779V.397zm11.298 0v27.116h9.039V15.46l9.038 12.053h9.04v-3L65.936.397zm18.077 0V8.69l9.04 12.058V3.398l-2.252-3zm27.117 0v19.207h-3.783l-4.52-4.519h-5.256v1.135l11.294 11.293h11.303V.397zm13.558 0v6.775l6.21 8.27h-6.21v6.775h11.298l3.977 5.292h7.321v-1.455L118.983.397zm6.16 0l16.436 21.885v-3.767L124.641.397zm5.658 0l10.778 14.352v-3.767L130.296.397zm5.653 0l5.125 6.824V3.448l-2.295-3.05zM20.743 15.456v12.053h9.039zM45.6 18.47v5.848l3.19 3.19h3.589V25.25zm42.933.94v3.19l4.908 4.909h3.191z" fill="none" stroke="gray" stroke-width=".794"/></svg>