<svg xmlns="http://www.w3.org/2000/svg" width="215.681" height="557.309" viewBox="0 0 57.065 147.455"><path style="marker:none" d="M57.065 0c-3.1.054-6.073.367-9.027.764-9.375 1.374-18.18 5.327-25.213 11.033C9.54 22.767 1.732 38.995 2.18 55.231c-.37 5.704.356 12.792-.113 19.115-2.857 6.989-2.437 8.61-.654 13.182 1.837 8.523 4.314 14.937 6.37 23.445 4.406 1.507 13.197 4.547 13.197 4.547l4.618 22.963 31.466 8.972v-25.917l-2.02-.546v16.998l-4.268-1.216-.013-25.239-4.267-1.132v22.791l-4.268-1.217-.012-17.901-4.267-1.133v11.775l-5.739-1.624-1.565-7.495 2.303 2.304v-12.86l2.886-1.665c1.243.292 2.48.427 3.681.376l8.129-8.985 1.58-11.929c-5.965 1.117-17.219-5.85-24.136-5.925-2.707-.029-4.75.998-5.552 3.977-1.055 3.92.02 8.128 2.304 11.852l-1.79 1.789v7.733c-8.482-7.928-11.412-19.445-.36-32.51 8.407-1.411 9.287 4.91 23.656 5.59-12.834-3.729-16.972-10.594-24.515-10.491l-7.377.101c.037-5.78.071-11.72.071-13.94 0-10.992 11.689-42.496 45.539-42.566zm0 92.803l-7.352 10.59 2.281 4.786 5.07-3.892zM24.28 96.04a25.662 25.662 0 005.7 4.838l-2.794 1.613v4.938a40.29 40.29 0 01-3.759-2.399v-8.137z" color="#000" overflow="visible" fill="#fff"/></svg>