<svg xmlns="http://www.w3.org/2000/svg" width="91.075" height="117.67" viewBox="0 0 24.097 31.133"><path style="marker:none" d="M12.049 0c-.655.011-1.283.077-1.906.161a11.055 11.055 0 00-5.324 2.33C2.014 4.807.366 8.233.461 11.66c-.079 1.205.075 2.701-.024 4.036-.604 1.476-.515 1.818-.139 2.784.389 1.8.911 3.153 1.346 4.95.93.318 2.786.96 2.786.96l.975 4.848 6.644 1.894 6.643-1.894.975-4.848s1.856-.642 2.786-.96c.435-1.797.958-3.15 1.346-4.95.376-.966.465-1.308-.139-2.784-.099-1.335.055-2.831-.024-4.036.095-3.428-1.553-6.854-4.358-9.17A11.055 11.055 0 0013.954.16 16.304 16.304 0 0012.05 0zm0 1.784c7.147.015 9.614 6.667 9.614 8.987 0 .47.007 1.723.015 2.944l-1.557-.022c-1.593-.021-2.466 1.428-5.176 2.216 3.034-.144 3.22-1.479 4.994-1.18 2.696 3.186 1.452 5.936-.988 7.586v-1.452l-.276-.275c.989-.961 1.622-2.3 1.297-3.508-.17-.63-.6-.846-1.172-.84-1.46.016-3.837 1.487-5.096 1.25l.333 2.52 1.717 1.897.722.722v1.602l.789-.455v-1.77l-.308-.308a4.19 4.19 0 00.342-.143l.502.502v1.513l-.505 2.42-1.212.343v-1.75l-.9.239v3.044l-.902.257-.003-3.06-.904.242v1.797l-.9.256v-1.812l-.427.115-.427-.115v3.59l-.9-.258-.004-5.328-.9-.24v4.813l-.902-.257-.003-3.78-.9-.24v2.487L6.8 25.99l-.331-1.582.486.486v-2.715l.61-.352c.262.062.523.09.777.08l1.716-1.898.334-2.518c-1.26.236-3.636-1.235-5.096-1.251-.572-.006-1.003.21-1.172.84-.223.827.004 1.716.486 2.502l-.378.378v1.632c-1.79-1.674-2.41-4.105-.076-6.864 1.775-.298 1.96 1.037 4.995 1.18-2.71-.787-3.584-2.236-5.176-2.214l-1.558.02c.008-1.22.015-2.474.015-2.943 0-2.32 2.468-8.972 9.615-8.987zm0 17.81l-1.553 2.236.482 1.01 1.07-.82 1.07.82.483-1.01zm-6.923.684c.351.399.764.749 1.204 1.021l-.59.34v1.043a8.506 8.506 0 01-.794-.506v-1.718z" overflow="visible" color="#000" fill="#ccc"/></svg>