<svg xmlns="http://www.w3.org/2000/svg" width="12.515" height="12.512" viewBox="0 0 3.3112957 3.3104792"><path style="line-height:normal;font-variant-ligatures:normal;font-variant-position:normal;font-variant-caps:normal;font-variant-numeric:normal;font-variant-alternates:normal;font-feature-settings:normal;text-indent:0;text-align:start;text-decoration-line:none;text-decoration-style:solid;text-decoration-color:#000;text-transform:none;text-orientation:mixed;shape-padding:0;isolation:auto;mix-blend-mode:normal;marker:none" d="M3.106 0a.198.198 0 0 0-.023.002H2.051c-.266 0-.266.399 0 .399h.578l-.719.718a.199.199 0 1 0 .282.282l.72-.722v.581c-.012.277.41.277.397 0V.23A.198.198 0 0 0 3.106 0zM1.265.267a.198.198 0 0 0-.007 0H0V3.31h3.043V2.053a.198.198 0 1 0-.397 0v.861H.398V.664h.86a.198.198 0 1 0 .007-.397z" color="#000" font-weight="400" font-family="sans-serif" white-space="normal" overflow="visible"/></svg>