<svg xmlns="http://www.w3.org/2000/svg" width="87.37" height="60.315" viewBox="0 0 23.11664 15.95825"><path d="M11.786 11.786q.034.764.274 1.482H1.014q-.467 0-.74-.216Q0 12.824 0 12.345V1.015q0-.49.274-.753Q.547 0 1.014 0H17.03q.478 0 .73.262.25.262.25.752v3.728q-.422.023-.844.091-.41.068-.786.194V3.169L9.507 8.446q-.206.171-.468.171-.273 0-.479-.17L1.607 3.168v8.617zM2.132 1.63l6.907 5.22 6.896-5.22zM21.76 7.523q1.357 1.186 1.357 3.078 0 .695-.194 1.265-.183.57-.536 1.015-.365.467-.81.683-.432.206-.957.206-1.356 0-1.356-1.254h-.023q-.433 1.254-1.653 1.254-.81 0-1.265-.582-.25-.296-.376-.672-.126-.388-.126-.9 0-1.323.673-2.223.32-.422.752-.639.433-.228.98-.228.217 0 .388.069.183.057.342.182.171.114.274.24.102.125.148.296h.034q0-.091.011-.251.023-.16.069-.422h.957q-.125 1.55-.193 2.337-.057.787-.057.81 0 1.173.58 1.173.537 0 .936-.65.16-.33.25-.752.103-.421.103-.957 0-1.493-.992-2.474-.98-.946-2.735-.946-1.642 0-2.736 1.163-1.106 1.151-1.106 2.907 0 1.755 1.037 2.792 1.072 1.072 2.862 1.072.695 0 1.299-.126.604-.114 1.117-.376v.923q-1.049.422-2.587.422-2.155 0-3.466-1.3-1.322-1.287-1.322-3.35 0-2.143 1.402-3.568 1.39-1.425 3.557-1.425 2.086 0 3.362 1.208zm-2.85 4.765q.16-.342.251-.775.103-.445.103-.992 0-1.151-.923-1.151-.639 0-1.06.65-.194.307-.297.695-.102.387-.102.866 0 .661.284.98.263.4.696.4.342 0 .593-.172.262-.17.456-.501z" style="line-height:8.86488342px;-inkscape-font-specification:'AR PWanyinzhuai JIS Light, ';font-variant-ligatures:normal;font-variant-position:normal;font-variant-caps:normal;font-variant-numeric:normal;font-variant-alternates:normal;font-feature-settings:normal;text-indent:0;text-align:start;text-decoration-line:none;text-decoration-style:solid;text-decoration-color:#000;text-transform:none;text-orientation:mixed;shape-padding:0;isolation:auto;mix-blend-mode:normal;marker:none" color="#000" font-weight="400" font-size="23.345" font-family="AR PWanyinzhuai JIS Light" white-space="normal" overflow="visible" opacity=".99" fill="#ccc" stroke-width=".443" stroke-linecap="round"/></svg>