<svg xmlns="http://www.w3.org/2000/svg" width="200" height="41.392" viewBox="0 0 52.916666 10.95163"><path style="line-height:normal;text-indent:0;text-align:start;text-decoration-line:none;text-decoration-style:solid;text-decoration-color:#000;text-transform:none;isolation:auto;mix-blend-mode:normal" d="M36.681.756v6.685h-1.708l-1.181-1.574h-1.83v.395l2.952 3.93h4.912V.756zm4.72 0v2.357l2.16 2.88H41.4V8.35h3.93l1.386 1.84h2.547v-.542L42.586.756zm2.169 0l5.694 7.583V7.028L44.555.756zm1.97 0l3.724 4.958v-1.31L46.524.756zm1.97 0l1.754 2.338V1.781l-.77-1.025zM3.652.758v9.438h.785V.758zm1.572 0v9.438h.786V.758zm1.573 0v9.438h.786V.758zm1.573 0v9.438h3.145V6l3.146 4.196h3.145V9.15L11.517.758zm10.223 0v.787l2.358 3.141V1.81l-.79-1.052zm5.505 0l-.004.002h.006zm.002.002l7.072 9.436V.76h-1.57l.785 1.045v6.038L27.24 3.646V.76zm-9.442 0v2.886l3.146 4.197V1.805L17.022.76zm3.935 2.096v7.338h2.359V5.998zM24.1 6v4.195h3.146zm7.864 1.576v1.31l.983 1.309h.984z"/></svg>