<svg xmlns="http://www.w3.org/2000/svg" width="85.045" height="100.462" viewBox="0 0 22.50156 26.580521"><path d="M17.392 0h5.11v3.018q0 .882-.06 1.898-.045 1.016-.254 2.047-.194 1.03-.598 2.017-.403.986-1.09 1.808-1.734 2.047-4.662 2.226-.807 1.45-1.763 2.346-.942.896-2.017 1.18.418.164.791.493.374.314.658.732.299.404.493.852.21.448.299.866h1.882v2.092h1.21v5.006H5.11v-5.006h1.21v-2.092h1.913q.074-.418.269-.866.194-.448.478-.852.299-.418.672-.732.389-.329.822-.493-1.076-.284-2.047-1.18-.956-.897-1.733-2.346-1.465-.09-2.645-.628-1.165-.553-2.032-1.569Q1.315 9.996.911 9.01.508 8.009.3 6.978.105 5.932.045 4.916 0 3.9 0 3.018V0h5.11v.986H1.42v2.107q0 .807.044 1.703.045.882.224 1.778.18.882.523 1.718.359.837.971 1.54.538.627 1.21 1.03.673.389 1.525.538-.852-2.092-1.345-4.721-.493-2.645-.493-5.648h14.344q0 3.003-.493 5.648-.479 2.63-1.315 4.721 1.658-.343 2.719-1.554.598-.717.941-1.554.359-.836.538-1.718.18-.881.224-1.763.045-.881.045-1.688V.986h-3.69zm-2.017 24.19q0-.224-.33-.404-.313-.194-.88-.328-.553-.15-1.315-.224-.748-.075-1.6-.075-.836 0-1.583.075-.747.074-1.3.224-.553.134-.881.328-.314.18-.314.404 0 .21.314.388.328.18.881.314.553.135 1.3.21.747.074 1.584.074.851 0 1.599-.075.762-.074 1.314-.209.568-.134.882-.314.329-.179.329-.388z" style="line-height:11.61993408px;-inkscape-font-specification:'AR PWanyinzhuai JIS Light, ';font-variant-ligatures:normal;font-variant-position:normal;font-variant-caps:normal;font-variant-numeric:normal;font-variant-alternates:normal;font-feature-settings:normal;text-indent:0;text-align:start;text-decoration-line:none;text-decoration-style:solid;text-decoration-color:#000;text-transform:none;text-orientation:mixed;shape-padding:0;isolation:auto;mix-blend-mode:normal;marker:none" color="#000" font-weight="400" font-size="30.6" font-family="AR PWanyinzhuai JIS Light" white-space="normal" overflow="visible" opacity=".99" fill="#ccc" stroke-width=".581" stroke-linecap="round"/></svg>