<svg xmlns="http://www.w3.org/2000/svg" width="68.908" height="69.981" viewBox="0 0 18.232 18.516"><path d="M17.912 2.425q.164.385.238.778.082.385.082.797 0 .768-.284 1.492-.284.723-.86 1.308-.577.586-1.29.879-.705.284-1.456.284-.696 0-1.354-.247L7.56 13.189q.238.659.238 1.345 0 .77-.284 1.51-.283.733-.86 1.318-.568.577-1.281.86-.714.294-1.456.294-.787 0-1.537-.311l2.544-2.609-2.06-2.105L.32 16.099q-.164-.384-.247-.778Q0 14.928 0 14.516q0-.769.284-1.483.283-.723.86-1.3.577-.585 1.29-.869.714-.293 1.474-.293t1.483.293l5.336-5.382q-.137-.357-.21-.741-.074-.384-.074-.769 0-.769.284-1.492.284-.732.86-1.308.577-.586 1.29-.88Q13.602 0 14.352 0q.77 0 1.501.311L13.308 2.93l2.05 2.096z" aria-label="🔧" color="#000" font-weight="400" font-size="18.745" font-family="AR PWanyinzhuai JIS Light" opacity=".99" fill="#ccc" stroke-width=".356" stroke-linecap="round"/></svg>